<?xml version="1.0" encoding="utf-8"?>
<!-- Generator: Adobe Illustrator 24.1.1, SVG Export Plug-In . SVG Version: 6.00 Build 0)  -->
<svg version="1.1" id="Layer_1"
	xmlns="http://www.w3.org/2000/svg"
	xmlns:xlink="http://www.w3.org/1999/xlink" x="0px" y="0px" viewBox="0 0 512 512" style="enable-background:new 0 0 512 512;" xml:space="preserve">
	<g>
		<path fill="rgb(23, 23, 141)" d="M442.4,328.9l-40.6-106.4h30.3l29.7,76.8l29.6-76.8H512l-41.1,106.4H442.4z M348.1,204.6v-24h28.7v24H348.1z M348.1,329
		V222.5h28.7v106.4L348.1,329z M198.8,329l46-70.7l-43.9-72.8h34.9l29.2,48.3l31.6-48.3h24L276.9,253l45.6,75.8h-34.8l-31.1-51.4
		l-33.3,51.4h-24.4L198.8,329z M127.2,329V222.5h28.6v20.1c7.4-15,18.8-22.5,34-22.5c1.8,0,3.6,0.2,5.3,0.5v25.6
		c-3.6-1.3-7.4-2.1-11.3-2.2c-11.6,0-20.8,5.7-28,17.2V329H127.2z M62.3,317.4c-9.5,9.3-19.8,14-30.8,14c-8.4,0.2-16.6-2.8-22.8-8.6
		c-5.8-5.8-9-13.8-8.7-22.1c-0.4-10.9,4.9-21.3,14.1-27.2c9.4-6.4,22.8-9.6,40.4-9.6h7.6v-9.7c0-11-6.3-16.5-18.8-16.5
		c-12,0.3-23.7,3.5-34,9.5v-19.8c12.3-4.9,25.5-7.4,38.8-7.4c27.9,0,41.8,11.1,41.8,33.2v47.3c0,8.4,2.6,12.5,8,12.5l3.8-0.4
		l0.7,16.1c-5.2,1.7-10.6,2.6-16.1,2.8c-11.9,0-19.3-4.6-22.8-13.9L62.3,317.4L62.3,317.4z M62.3,302v-21.6h-6.9
		c-18.6,0-27.8,5.8-27.8,17.4c-0.2,7.7,6,13.9,13.6,13.9C48.4,311.8,55.2,308.5,62.3,302z"/>
	</g>
</svg>
